<svg xmlns="http://www.w3.org/2000/svg" width="1024" height="1024" viewBox="0 0 1024 1024" fill="none">
  <g transform="translate(96 96)">
    <rect x="72" y="100" width="688" height="656" rx="152" fill="#FFFCF7"/>
    <path d="M72 250C72 166.053 140.053 98 224 98H608C691.947 98 760 166.053 760 250V296H72V250Z" fill="#B55A32"/>
    <rect x="150" y="374" width="310" height="60" rx="30" fill="#241F18"/>
    <rect x="150" y="472" width="238" height="60" rx="30" fill="#5E5549"/>
    <rect x="150" y="570" width="184" height="60" rx="30" fill="#8A7F72"/>
    <rect x="474" y="404" width="210" height="210" rx="72" fill="#B55A32"/>
    <path d="M548 472L618 510.143V584.857L548 623V472Z" fill="#FFFCF7"/>
    <rect x="154" y="144" width="82" height="62" rx="31" fill="#FFFCF7" fill-opacity="0.26"/>
    <rect x="596" y="144" width="82" height="62" rx="31" fill="#FFFCF7" fill-opacity="0.26"/>
  </g>
</svg>
